<?xml version="1.0" encoding="UTF-8"?><svg id="Layer_1" xmlns="http://www.w3.org/2000/svg" viewBox="0 0 1080 370.86"><defs><style>.cls-1{fill:#27004b;}</style></defs><path class="cls-1" d="M335.44,367.85c-3.56-2-6.29-4.87-8.21-8.6s-2.87-8.1-2.87-13.11.96-9.37,2.87-13.08c1.91-3.71,4.65-6.57,8.21-8.57,3.56-2.01,7.71-3.01,12.45-3.01,5.98,0,11.13,1.64,15.46,4.92.69.55,1.16,1.09,1.44,1.64.28.55.41,1.23.41,2.05,0,1.18-.33,2.19-.99,3.04-.66.84-1.47,1.26-2.43,1.26-.64,0-1.2-.08-1.68-.23s-1.02-.45-1.61-.86c-1.82-1.18-3.51-2.03-5.06-2.56-1.55-.52-3.22-.79-5-.79-4.38,0-7.68,1.35-9.89,4.06-2.21,2.71-3.32,6.75-3.32,12.13,0,10.84,4.4,16.25,13.21,16.25,1.69,0,3.28-.26,4.79-.79,1.5-.52,3.26-1.38,5.27-2.56.69-.41,1.25-.69,1.71-.86.45-.16.98-.23,1.57-.23.96,0,1.76.42,2.43,1.26.66.84.99,1.86.99,3.04,0,.82-.15,1.52-.44,2.09-.3.57-.77,1.1-1.4,1.6-4.33,3.28-9.49,4.92-15.46,4.92-4.74,0-8.89-1-12.45-3.01Z"/><path class="cls-1" d="M383.51,367.82c-3.54-2.03-6.26-4.9-8.18-8.61-1.91-3.71-2.87-8.07-2.87-13.08s.96-9.37,2.87-13.08c1.91-3.71,4.64-6.57,8.18-8.57,3.53-2.01,7.7-3.01,12.48-3.01s8.95,1,12.49,3.01c3.54,2,6.26,4.86,8.18,8.57,1.91,3.71,2.87,8.07,2.87,13.08s-.96,9.36-2.87,13.08c-1.92,3.71-4.64,6.58-8.18,8.61-3.54,2.02-7.7,3.04-12.49,3.04s-8.95-1.01-12.48-3.04ZM405.47,358.36c2.3-2.82,3.46-6.9,3.46-12.22s-1.14-9.39-3.42-12.19c-2.28-2.8-5.45-4.2-9.51-4.2s-7.22,1.4-9.48,4.2c-2.26,2.8-3.39,6.86-3.39,12.19s1.14,9.4,3.42,12.22c2.28,2.83,5.43,4.24,9.44,4.24s7.17-1.41,9.48-4.24Z"/><path class="cls-1" d="M431.71,368.95c-.87-.87-1.3-2.09-1.3-3.69v-38.24c0-1.59.48-2.87,1.44-3.83.96-.96,2.26-1.43,3.9-1.43s2.94.47,3.9,1.43,1.44,2.23,1.44,3.83v34.55h17.51c3.33,0,4.99,1.45,4.99,4.37s-1.67,4.3-4.99,4.3h-23.19c-1.6,0-2.83-.43-3.69-1.3Z"/><path class="cls-1" d="M474.33,368.95c-.87-.87-1.3-2.09-1.3-3.69v-38.24c0-1.59.48-2.87,1.44-3.83.96-.96,2.26-1.43,3.9-1.43s2.94.47,3.9,1.43,1.44,2.23,1.44,3.83v34.55h17.51c3.33,0,4.99,1.45,4.99,4.37s-1.67,4.3-4.99,4.3h-23.19c-1.6,0-2.83-.43-3.69-1.3Z"/><path class="cls-1" d="M516.95,368.95c-.87-.87-1.3-2.09-1.3-3.69v-38.18c0-1.59.43-2.82,1.3-3.69.86-.86,2.1-1.3,3.69-1.3h24.22c3.37,0,5.06,1.37,5.06,4.1s-1.69,4.16-5.06,4.16h-18.81v11.27h17.44c3.37,0,5.06,1.39,5.06,4.16s-1.69,4.1-5.06,4.1h-17.44v12.09h18.81c3.37,0,5.06,1.39,5.06,4.16s-1.69,4.1-5.06,4.1h-24.22c-1.6,0-2.83-.43-3.69-1.3Z"/><path class="cls-1" d="M570.04,367.85c-3.56-2-6.29-4.87-8.21-8.6-1.91-3.74-2.87-8.1-2.87-13.11s.96-9.37,2.87-13.08c1.91-3.71,4.65-6.57,8.21-8.57,3.56-2.01,7.71-3.01,12.45-3.01,5.98,0,11.13,1.64,15.46,4.92.69.55,1.16,1.09,1.44,1.64.28.55.41,1.23.41,2.05,0,1.18-.33,2.19-.99,3.04-.66.84-1.47,1.26-2.43,1.26-.64,0-1.2-.08-1.68-.23s-1.02-.45-1.61-.86c-1.82-1.18-3.51-2.03-5.06-2.56-1.55-.52-3.22-.79-5-.79-4.38,0-7.68,1.35-9.89,4.06-2.21,2.71-3.32,6.75-3.32,12.13,0,10.84,4.4,16.25,13.21,16.25,1.69,0,3.28-.26,4.79-.79,1.5-.52,3.26-1.38,5.27-2.56.69-.41,1.25-.69,1.71-.86.45-.16.98-.23,1.57-.23.96,0,1.76.42,2.43,1.26.66.84.99,1.86.99,3.04,0,.82-.15,1.52-.44,2.09-.3.57-.77,1.1-1.4,1.6-4.33,3.28-9.49,4.92-15.46,4.92-4.74,0-8.89-1-12.45-3.01Z"/><path class="cls-1" d="M622.76,369.15c-.98-.96-1.47-2.23-1.47-3.83v-34.55h-11.08c-3.38,0-5.06-1.45-5.06-4.37s1.69-4.3,5.06-4.3h32.84c3.37,0,5.06,1.44,5.06,4.3s-1.69,4.37-5.06,4.37h-11.08v34.55c0,1.59-.48,2.87-1.44,3.83-.96.96-2.26,1.43-3.9,1.43s-2.89-.47-3.87-1.43Z"/><path class="cls-1" d="M658.23,369.22c-.96-.96-1.44-2.25-1.44-3.89v-38.31c0-1.59.48-2.87,1.44-3.83.96-.96,2.26-1.43,3.9-1.43s2.94.47,3.9,1.43,1.44,2.23,1.44,3.83v38.31c0,1.64-.48,2.94-1.44,3.89s-2.26,1.44-3.9,1.44-2.94-.48-3.9-1.44Z"/><path class="cls-1" d="M717.82,322.4c.77-.47,1.64-.72,2.6-.72,1.37,0,2.6.46,3.7,1.37,1.09.91,1.64,2.03,1.64,3.35,0,.68-.16,1.37-.48,2.05l-18.47,38.93c-.5,1.05-1.26,1.85-2.26,2.42s-2.1.86-3.28.86-2.28-.29-3.28-.86-1.76-1.37-2.26-2.42l-18.47-38.93c-.32-.63-.48-1.3-.48-1.98,0-1.37.57-2.5,1.71-3.41s2.42-1.37,3.83-1.37c.96,0,1.84.24,2.64.72.8.48,1.4,1.2,1.81,2.15l14.64,31.96,14.64-31.96c.41-.96,1-1.67,1.78-2.15Z"/><path class="cls-1" d="M736.36,368.95c-.87-.87-1.3-2.09-1.3-3.69v-38.18c0-1.59.43-2.82,1.3-3.69.86-.86,2.1-1.3,3.69-1.3h24.22c3.37,0,5.06,1.37,5.06,4.1s-1.69,4.16-5.06,4.16h-18.81v11.27h17.44c3.37,0,5.06,1.39,5.06,4.16s-1.69,4.1-5.06,4.1h-17.44v12.09h18.81c3.37,0,5.06,1.39,5.06,4.16s-1.69,4.1-5.06,4.1h-24.22c-1.6,0-2.83-.43-3.69-1.3Z"/><path class="cls-1" d="M0,134.5C0,58.07,58.74.08,136.31.08c44.02,0,82.17,18.55,106.87,48.67,4.09,4.98,2.72,12.47-2.76,15.86l-20.23,12.49c-4.51,2.78-10.33,1.82-13.76-2.21-16.55-19.48-41.54-31.5-70.13-31.5-51.21,0-90.37,39.16-90.37,91.11s39.16,91.13,90.37,91.13c28.59,0,53.58-12.02,70.13-31.5,3.43-4.04,9.25-4.99,13.76-2.21l20.22,12.49c5.48,3.39,6.85,10.88,2.76,15.86-24.7,30.11-62.85,48.67-106.87,48.67C58.74,268.93,0,210.94,0,134.5Z"/><path class="cls-1" d="M506.05,17.58v233.84c0,7.17-5.81,12.99-12.99,12.99h-18.46c-7.17,0-12.99-5.81-12.99-12.99v-83.59c0-7.17-5.81-12.99-12.99-12.99h-101.29c-7.17,0-12.99,5.81-12.99,12.99v83.59c0,7.17-5.81,12.99-12.99,12.99h-18.83c-7.17,0-12.99-5.81-12.99-12.99V17.58c0-7.17,5.81-12.99,12.99-12.99h18.83c7.17,0,12.99,5.81,12.99,12.99v82.1c0,7.17,5.81,12.99,12.99,12.99h101.29c7.17,0,12.99-5.81,12.99-12.99V17.58c0-7.17,5.81-12.99,12.99-12.99h18.46c7.17,0,12.99,5.81,12.99,12.99Z"/><path class="cls-1" d="M866.51,164.25V16.59c0-6.63,5.37-12,12-12h20.43c6.63,0,12,5.37,12,12v143.42c0,40.54,36.95,72.7,76.56,64.08,28.21-6.13,47.7-30.17,47.7-60.6V16.59c0-6.63,5.37-12,12-12h20.81c6.63,0,12,5.37,12,12v147.65c0,59.88-45.94,104.69-106.94,104.69s-106.56-44.81-106.56-104.69Z"/><path class="cls-1" d="M593.74,46.97c16.97-22.15,42.54-36.88,67.04-43.59-9.77,2.89-19.41,6.4-28.24,11.47,13.42-7.12,25.97-11.25,41.38-12.7-2.19.99-5.75,1.74-9.02,2.5-3.28.72-6.14,1.99-7.09,2.97-34.85,10.15-66.25,34.2-83.21,66.77,3.51-14.65,12.8-19.83,19.13-27.41Z"/><path class="cls-1" d="M714.4,3.84c-3.64-.37-7.18-.73-10.68-1.09,3.74.23,7.43.52,10.68,1.09Z"/><path class="cls-1" d="M648.64,238.82c3.5,1.46,7.19,2.4,10.7,3.45-3.63-.76-7.26-1.85-10.7-3.45Z"/><path class="cls-1" d="M577.83,91.72c-.38,2.07-.81,4.12-1.29,6.19-4.62,15.17-6.52,31.5-5.08,48-1.8-17.77-1.12-37.67,6.38-54.2Z"/><path class="cls-1" d="M587.25,77.2c6.98-14.26,17.86-26.8,30.11-35.24-12.01,8.73-22.61,20.97-30.11,35.24Z"/><path class="cls-1" d="M749.4,213.47c-.21-.22-.12-.54.08-.89.28-.28.51-.57.66-.86,2.4-1.16,4.38-2.91,6.63-4.33,2.27-1.41,4.31-3.09,6.32-4.82-.84,1.03-1.34,2.29-2.29,3.26-2.39,1.76-4.13,2.45-5.72,3.42-1.61.96-3.13,2.13-5.68,4.22Z"/><path class="cls-1" d="M644.73,237.23h-.43c-1.22-.47-2.45-.87-3.58-1.48-.12-.1-.22-.19-.36-.31,1.41.69,2.9,1.21,4.37,1.79Z"/><path class="cls-1" d="M743.63,216.98c-.37-.43-.74-.85-1.36-1.03,2.72-1.19,5.18-2.83,7.82-4.2-.23.29-.45.57-.6.83-1.47,1.37-4.29,2.7-5.86,4.4Z"/><path class="cls-1" d="M678.72,224.64c-1.79-.37-3.6.39-4.52.49-4.62-1.5-8.87-3.86-13.98-6-.89-.09-2.56-.8-4.37-.95-.76-.82-1.61-1.6-2.53-2.36,10.87,5.4,23.1,8.9,36.04,9.98-3.46-.22-7.01-.59-10.64-1.15Z"/><path class="cls-1" d="M714.26,22.64c9.53,1.19,19.2,5.16,28.3,9.64,8.88,5,17.41,10.27,25.27,15.55-7.43-8.23-18.49-15.78-28.18-20.97-9.63-5.38-17.89-8.63-19.05-11.31-.58-1.37,1.1-1.66,4.29-1.26,3.11.67,7.69,2.15,12.75,4.19,10.13,4.34,21.32,12.18,28.74,17.61q-1.71-1.82-3.42-3.63c1.69,1.88,3.5,3.51,5.46,4.54-3.22-3.78-10.59-10.14-12.38-12.68,1.49.42,3.04.77,4.51,1.27-2.3-2.44-5.46-4.98-9-7.7-3.64-2.53-7.87-4.84-12.09-7.27-4.4-1.96-8.82-4.13-13.02-5.87-4.25-1.58-8.18-3.15-11.42-4.75,16.11,5.6,32.67,13.31,47.7,24.55,15.04,11.14,28.6,25.52,38.85,42.53,10.11,17.07,16.51,36.85,18.17,57.08,1.61,20.24-2.03,40.69-9.73,58.73-16.24,40.88-50.69,71.46-90.56,83.68-3.75,1.26-10.4,2.02-17.76,2.56-7.36.13-15.48.05-22.09-1.1-11.9-.59-23.56-3.41-35.04-6.84-11.24-4.08-22.49-8.68-32.67-15.2-43.38-28.4-65.57-82.48-57.51-136.55.93-5.39,3.49-11.46,5.14-12.79,1.74-1.33,2.33,1.92.7,14.68-1.44,21.34,1.17,42.9,8.01,63.1-2.08-1.92-4.49-11.88-6.18-16.42,2.42,15.75,6.91,28.57,14.88,42.14-5.19-9.11-9.88-18.58-12.96-28.67,7.7,25.14,24.66,50.37,47.91,67.22,8.42,5.79,13.86,15.6,29.29,18.27-34.25-16.07-60.85-46.97-72.95-82.54.06.05.11.12.16.15-5.7-15.8-7.63-31.21-7.22-47.34.19,5.04.26,10.14.6,14.56-.79-23.57,4.39-46.48,14.23-67.17-11.83,30.09-13.94,65.19-3.23,97.07,10.4,31.81,34.09,59.23,63.09,72.77-7.28-5.34-16.24-10.46-23.89-17.06-7.9-6.24-14.45-13.75-17.92-20.75,17.1,23.08,42.47,40.04,71.21,47.53-2.2-.27-4.36-.52-6.48-.99,17.41,7.01,38.04,6.91,56.32,4.01,1.65-.27,3.28-.53,4.94-.8l-4.94.8c-16.98,2.32-33.97,1.09-49.84-3.02,7.45,1.17,15.3,2.33,24.81,3.01-2.57-.42-5.64-1.2-8.99-1.85-3.35-.67-6.98-1.18-10.5-2.3-4.71-1-9.41-1.98-13.92-3.66-2.27-.77-4.56-1.47-6.79-2.32l-6.52-2.94c13.47,5.88,27.97,8.85,41.12,8.45-19.37-2.66-38.87-9.04-54.98-20.07,9.23,5.34,18.86,10.1,29.16,12.79,16.84,5.72,35.25,7.88,53.47,5.45-.68.19-1.38.25-2.07.36,1.4-.09,2.75-.44,4.12-.72,3.51-.7,7.12-1.11,10.59-2.08,3.46-1.02,6.98-1.92,10.41-3.08,3.01-1.27,5.93-2.65,8.78-4.1,2.81-1.52,5.39-3.45,8-5.2l2.8-1.51c-1.55,1.32-2.15,2.3,1.37.54,15.25-7.55,27.34-21.71,39.52-36.54,1.75-1.89,3.26-4.47,4.78-7.38,1.55-2.89,3.23-6.03,4.39-9.56,1.13-1.69,1.35-2.75,1.39-3.75.51-1.5,1.18-2.97,1.59-4.52,1.13-3.74,2.35-7.48,3.11-11.23-1.01,3.63-2.05,7.41-3.11,11.23-.42,1.41-1.07,2.72-1.57,4.08,0-1.08.05-2.18.75-4.21-9.71,24.98-28.42,47.06-52.22,61.33,1.26-1.26,2.83-2.82,3.62-3.6-2.06,1.8-4.12,3.63-6.42,5.11-3.94,2.13-7.83,4.37-12.03,5.99l-6.19,2.66-6.4,2.12c2.49-1.05,4.76-2.1,6.63-3.31-24.01,8.07-50.61,9.31-75.3,1.93-11.47-3.71-22.12-9.47-31.66-16.47-4.92-3.32-9.17-7.46-13.57-11.36-3.98-4.34-8.13-8.5-11.51-13.3,6.71,10.73,16.15,20.72,27.58,28.33-15.49-9.62-28.8-22.9-38.4-38.51-9.72-15.55-15.09-33.68-16.09-51.76,1.12,3.18,2.21,6.91,3.81,10.18,1.53,3.28,2.75,6.25,4.52,7.81.67-.47-.81-11.42.96-5.24,7.84,21.75,15.53,36.91,25.74,40.55.59.08.36-1.29-.19-3.25-.46-2.11-1.02-4.73-1.56-7.24-1.18-4.87-.96-9.28,1.13-6.26,3.53,4.97,9.74,14,18.57,21.61,2.29,2.44,5.02,4.61,7.69,7.03.3.35,1.13.49,2.14.71,10.24,7.19,21.22,11.92,27.49,13.95,2.29.9,4.55,1.84,6.95,2.34,1.18.58,2.16,1.24,2.89,1.97,1.61-.14,3.16.05,4.74-.06,3.25.43,6.48,1.06,9.72,1.37,3.25.07,6.5.35,9.73.3,3.59.06,7.31.67,10.92.35-.14-.37-.79-.77-.18-1.28,4-.7,8.02-1.27,11.87-2.55,3.96-.92,7.69-2.5,11.45-3.99,3.29-.68,6.16-1.77,9.13-2.03,3.14-3.6,9.05-7.81,15.17-12.9,3.04-2.55,6.04-5.44,8.9-8.28,2.57-3.1,5.45-5.86,7.19-8.97l-.11-.06c2.06-2.9,4.18-5.77,5.81-8.98l2.68-4.68,2.19-4.96c.79-.97,1.61-1.87,2.47-2.7.17-1.88.58-3.74.62-4.67,2.44-5.32,3.93-10.06,5.76-14.84-.08-.94-1.1-2.82-.9-4.72.24-1.91.47-3.79.7-5.63.1-1.86,0-3.69-.01-5.5.36-4.25-.04-8.53-.27-12.88-1.09-14.64-5.52-28.88-12.53-41.78.11-.62.51-1.01.91-1.41-1.92-1.5-3.01-4.66-4.72-5.98.39.2.73.26.92.04-5.03-4.71-4.55-6.71-8.65-11.38-.99-.99-2.28-1.53-3.33-2.4-.41-.55-.93-.98-1.4-1.47-3.6-6.45-9.8-10.26-16.53-14.21-3.27-2.18-6.51-4.5-10.09-6.21l-5.28-2.83-5.54-2.27c-5.84-2.55-7.99-4.16-12.18-6.24Z"/><path class="cls-1" d="M764.59,201.34c5.35-4.46,10.09-9.62,14.46-15.13-4.21,6.18-7.92,12.15-14.46,15.13Z"/><path class="cls-1" d="M608.44,173.67c-.46-2.71-.65-5.81-1.44-8.87,2.62,7.89,7.09,14.98,11.7,21.87,5.02,6.63,10.73,12.8,17.31,18.09l-.06.11c-2.56-2.2-5.69-4.36-8.18-7.35-1.32-1.41-2.66-2.84-4-4.26-1.19-1.55-2.38-3.09-3.54-4.6-4.73-5.99-8.34-11.91-11.79-14.99Z"/><path class="cls-1" d="M749.48,212.59c.15-.26.37-.54.6-.83l.06-.03c-.15.3-.37.58-.66.86Z"/><path class="cls-1" d="M578.31,145.27l-.15-1.99c.49,5.05,2.04,9.92,3.07,14.86-1.08-3.88-2.46-8.24-2.92-12.87Z"/><path class="cls-1" d="M585.61,91.98c3.47-9.59,7.73-19.08,13.72-27.47,7.94-10.59,17.79-19.38,28.43-25.41-9.22,6.52-17.6,14.27-24.87,23.09-7.16,8.93-12.86,19.04-17.27,29.79Z"/><path class="cls-1" d="M600.49,142.38c.2-3.49.19-6.96.95-10.42-.34,3.46.17,6.87.33,10.3-.44-.6-.9,0-1.28.12Z"/><path class="cls-1" d="M592.09,185.02l-1.46-2.71c1.51,2.12,3.05,4.28,4.59,6.44-.69-.82-2.05-2.44-3.14-3.73Z"/><path class="cls-1" d="M605.94,106.23c-.95,2.33-1.32,4.83-2.04,7.23.1-1.5.1-3.01-.02-4.58.71-.67,1.31-1.6,2.06-2.65Z"/><path class="cls-1" d="M623.9,72.14c1.14-1.29,2.2-2.6,3.35-3.8,1.24-1.1,2.46-2.18,3.66-3.26-1.33,1.46-2.84,2.79-4.11,4.34l-3.75,4.68c.29-.93.49-1.7.86-1.96Z"/><path class="cls-1" d="M274.47,352.18H36.43c-3.32,0-6-2.69-6-6s2.69-6,6-6h238.05c3.32,0,6,2.69,6,6s-2.69,6-6,6Z"/><path class="cls-1" d="M1057.27,352.18h-238.05c-3.32,0-6-2.69-6-6s2.69-6,6-6h238.05c3.32,0,6,2.69,6,6s-2.69,6-6,6Z"/></svg>