<?xml version="1.0" encoding="UTF-8"?><svg id="Layer_1" xmlns="http://www.w3.org/2000/svg" viewBox="0 0 842.54 918.64"><defs><style>.cls-1{fill:#fff;}.cls-2{fill:#27004b;}</style></defs><path class="cls-1" d="M720.99,918.64c-8.43,0-15.43-1.8-20.02-3.21-2.95.57-6.77,1.29-11.24,1.64-2.51.26-5.08.39-7.64.39-8.53,0-15.63-1.43-20.81-2.48-.21-.04-.43-.09-.64-.13-2.62.72-5.73,1.4-9.22,1.78-2.42.31-4.92.47-7.46.47-6.94,0-13.19-1.13-18.22-2.04-.54-.1-1.07-.2-1.59-.3-9.45.99-20.8,1.93-32.08,1.93-4.06,0-8.05-.12-11.92-.38-.13.03-.27.06-.4.08-2.2.42-4.48.84-6.98,1.18l-3.98.54-4.01-.2c-3.02-.15-5.82-.47-8.59-.82-.42-.05-.83-.11-1.26-.16-10.83.8-21.48,1.21-31.69,1.21-14.86,0-29.31-.86-43.06-2.56-5.38.7-11.39,1.37-18.1,1.37-3.58,0-7.04-.19-10.41-.58-3.48.53-7.39.94-11.79.94s-8.97-.43-13.36-1.31c-3.71.79-8.63,1.61-14.42,1.61-4.6,0-9.2-.52-13.67-1.55-1.35.09-2.92.23-4.46.38-4.05.38-9.08.85-14.6.85s-10.49-.45-15.36-1.36c-2.74.5-5.8.84-9.1.84-2.93,0-5.83-.26-8.69-.77-4.73.94-9.68,1.41-14.92,1.41-4.88,0-9.18-.4-12.64-.72-1.47-.13-2.93-.33-4.36-.34-3.2.15-6.81.35-10.41.55-8.48.47-17.25.96-25.82.96h-2.12c-8.1,0-14.48-1.49-18.8-2.8-4.14.43-8.36.65-12.62.65-3.53,0-7.18-.15-10.89-.44h-.16c-2.62.05-5.2.09-7.74.09-2.86,0-6.12-.04-9.66-.26-.13.05-1.45.55-1.45.55l-1.08.34c-5.2,1.64-10.64,2.47-16.17,2.47-9.27,0-16.81-2.31-21.87-4.09-15.19,1.47-27.6,2.34-39.88,2.83l-4.43.18-4.38-.73c-2.01-.34-3.07-.38-3.84-.38-1.79,0-4.48.29-8.2.68l-2.21.22c-1.58.13-3.18.19-4.78.19-5.74,0-10.54-.83-13.41-1.32l-.69-.12-3.96-.32-4.56-1.41c-5.94-1.84-10.33-4.48-12.86-6.2-1.19-.46-2.61-1.03-4.2-1.76-9.73-4.11-16.28-10.11-20.43-14.38-10.83-5.16-19.39-13.9-25.55-26.12-12.51-13.8-14.89-29.39-16.13-37.5-.17-1.14-.3-2.33-.59-3.52l-.74-2.25-.38-1.99c-2.79-13.44-2.21-26.18-1.69-37.42.29-6.46.6-13.13,0-16.98-1.7-9.42-1-17.29-.57-22.03.01-.14.03-.27.03-.41-.97-4.86-2.37-12.03-1.95-20.48.32-9.02,1.44-16.73,2.43-23.55.54-3.71,1.02-7.01,1.31-10.1-.07-.81-.14-1.6-.21-2.35-.61-6.91-1.44-16.16,1.06-27.53-.07-1.25-.31-3.39-.5-5.04-.23-2.1-.46-4.19-.64-6.28-2.16-11.84-.98-21.97-.1-29.57.06-.46.11-.92.16-1.38-.05-.26-.1-.52-.15-.79-.88-4.51-2.09-10.69-2.21-18.01v-1.27c.13-10.26.31-20.49.5-30.72.5-27.41.96-53.33.53-79.77-.78-12.08.07-23.6.82-33.8.87-11.86,1.69-23.06-.42-31.04l-.87-3.3-.33-3.39c-1.94-20.3-.41-41.46,1.06-61.92.71-9.8,1.38-19.13,1.61-27.56-1.82-5.55-4.62-15.51-2.3-27.92.21-1.19.47-2.42.75-3.66-.89-9.29-.73-18.33-.58-26.51.04-2.27.09-4.49.1-6.62-3.16-16.04-.98-30.28.75-41.09-.01-.5-.04-1-.06-1.5-.18-4.82-.45-11.99,1.38-20.35-.5-2.91-1.01-6.6-1.1-10.9l-.05-2.07.15-2.07c.19-2.41-.11-6.7-.4-10.86-.5-7.06-1.09-15.57-.26-24.84-1.3-22.13,1.1-49.54,6.1-68.3l2.38-8.92,5.91-7.14c1.31-1.57,2.98-4.29,4.75-7.17,5.31-8.61,13.33-21.61,28.37-32.02l2.67-1.84,2.91-1.43C82.35,7.46,112.78,1.37,151.36,1.37c8.18,0,17.04.27,27.1.83l2.02.11,4.63.69c.56-.08,1.15-.17,1.75-.25,3.78-.51,8.49-1.16,13.97-1.16,3.75,0,7.41.31,10.93.94,1.66-.4,3.34-.78,5.01-1.1l2.4-.46,2.44-.18c4.08-.3,8.12-.44,12.13-.44,7.05,0,13.76.4,19.68.76,5.09.3,9.9.59,14.21.59,3.51,0,6.43-.2,8.92-.6l6.85-1.11,6.85,1.08c4.83.77,8.98,1.83,12.32,2.68,4.07-1.13,9.43-2.2,15.65-2.2l1.86.03,6.66.22,6.28,2.21c.24.08,1.17.35,3.58.35,3.9,0,9.15-.7,14.7-1.43,7.71-1.02,16.44-2.18,26.04-2.18,1.95,0,3.9.05,5.8.15,3.18-.32,6.42-.48,9.79-.48,8.93,0,17.06,1.17,23.59,2.11,3.8.55,7.41,1.06,10.08,1.19,5.14-.97,10.19-1.45,15.34-1.45,6.14,0,11.73.69,16.65,1.53,20.27-.11,40.73-1.3,60.56-2.47,1.98-.19,3.97-.29,5.93-.29,6.37,0,12.61.97,18.61,2.89.41-.09.83-.19,1.24-.28,5.41-1.16,12.83-2.76,21.46-2.76,1.37,0,2.72.04,4.08.12l1.91.16c2.24.23,4.63.51,7.13.79,7.06.81,15.05,1.73,21.09,1.73,2.67,0,3.76-.18,3.8-.19,5.49-1.1,10.2-1.57,14.95-1.57,5.1,0,9.76.57,13.95,1.34,4.11-1.06,9.77-2.19,16.45-2.19,2.22,0,4.5.12,6.84.39,5.71.56,12.92.84,22.7.84,4.66,0,9.36-.06,14.05-.12,5.07-.07,10.15-.13,15.21-.13,12.53,0,29.03.35,45.67,3.07l1,.18c13.31,2.5,22.11,9.28,27.17,13.98,10.7,4.8,20.06,11.78,29.16,21.69l2.79,3.04,2.14,3.51c12.59,20.56,20.16,42.15,23.84,67.92l.35,2.44.06,2.46c.2,7.95-.17,15.37-.52,22.54-.34,7.02-.67,13.65-.36,19.37l.1,1.74-.05,1.74c-.16,5.62-.44,11.27-.72,16.94-.84,16.76-1.63,32.6,1.32,45.63l2.02,8.92-1.88,8.95c-.69,3.29-1.47,7-1.48,8.09l1.32,6.04-.47,6.02c-.87,11.22-1.03,22.28-1.19,34-.13,8.58-.25,17.41-.66,26.69,2.88,17.92,2.12,34.47,1.45,49.23l-.3,6.67-.17.7c.55,4.79,1.31,12.32-.45,21.42,1.21,4.49,2.75,10.79,2.85,18.36-.02,8.52-1.11,15.09-1.91,19.9-.24,1.45-.5,2.9-.68,4.39-.39,3.07-.96,7.4-.82,8.73l.1.35c1.06,4.41,3.03,12.62,1.75,23.57l-.13.97c-.6,4.24-1.61,7.94-2.53,10.88,1.22,5.37,2.76,13.31,2.12,22.8-.17,4.1-.68,7.62-1.1,10.35,2.32,13.6.87,25.6-.23,34.79-.37,3.03-.72,5.95-.84,8.29,1.56,7.63,2.39,12.99,3.49,19.98l.8,5.11-.07,3.69c-.17,8.61-2.21,15.5-3.43,19.63.19,1.11.57,3.19.84,4.69.7,3.85,1.57,8.64,1.88,13.89.43,8.19-.82,14.87-1.77,19.49,1.12,7.36,1.07,13.6.89,18.99,1.47,9.73,2.12,20.34-.31,32.43,3.99,14.67,2.31,28.52,1.16,37.95l-.45,3.95-.14.88c-.25,1.65-.56,3.35-.94,5.18.81,4.07,1.7,10.03,1.21,17.17,1.69,16.59,3.5,36.96-3.18,58.74l-.83,2.7-1.18,2.57c-1.61,3.49-3.26,6.26-4.47,8.28l-.17.29-.51,1.52c-2.71,8.12-8.04,24.07-21.93,35.01-2.93,4.15-7.11,8.78-13.04,12.79l-1.7,1.15-1.8.98c-17.19,9.36-38.12,19.38-63.08,22.66-2.88.35-5.22.48-7.53.48Z"/><path class="cls-2" d="M176.99,44.71c9.35,2.93,20.74-2.36,28.52-.1,6.56,2.65,12.83-.26,19.34-1.5,20.01-1.51,38.96,3.06,58.62-.12,7.31,1.16,14.19,4.05,21.62,4.17,4.74-.29,8.5-3.31,13.54-3.15,21.47,7.57,44.02-2.83,65.71-.44,15.95-2.76,31.58,3.65,47.45,2.49,8.13-2.08,14.17-1.52,22.87.2,22.86.03,45.13-1.26,68.1-2.62,3.38-.43,6.72.08,9.8,1.48,11.27,5.19,23.87-2.42,35.36-1.73,13.41,1.4,32.64,4.4,45.51,1.62,5.83-1.16,9.89-.65,16.58,1,8.09,2.23,13.43-3.3,21.7-2.36,31.05,3.05,64.49-1.7,95.55,3.37,6.53,1.23,8.42,8.52,15.25,10.03,6.76,2.55,12.08,6.77,17.31,12.47,10.29,16.81,15.4,33.28,18.05,51.86.34,14.11-1.62,28.73-.83,43.18-.68,24.22-3.78,49.13,1.62,73.01-1.9,9.03-3.47,16.1-1.41,25.52-1.75,22.7-.9,43.65-2.17,66.62,3.19,15.83,2.28,31.31,1.57,47.02-2.21,8.66,2.21,15.15-.98,23.39-2.33,8.33,2.88,16.2,2.98,23.85-.02,6.72-1.56,12.52-2.3,18.79-.93,7.14-1.81,14.19-.34,21.63.73,3.53,1.89,6.59,1.37,11.06-.69,4.85-3.9,10.51-3.7,15.36-.06,6.69,3.65,13.65,2.92,21.88-.12,5.17-1.78,10.38-1.52,15.5,4.26,14.88-1.39,29.36-.71,44.64,2.06,9.55,2.85,14.8,4.22,23.56-.11,5.73-3.1,10.78-3.44,16.6-.67,8.83,2.37,17.81,2.79,24.87.31,5.94-2.41,12.2-2.38,18.52,1.98,7.34,1.58,12.47,1.31,20.16,1.49,8.41,2.29,15.79-.05,24.38-1.02,5.01-.38,10.12.9,15.01,2.8,8.14.89,18.71,0,26.85-.33,2.2-.89,4.61-1.41,6.71-2.15,8.23,2.73,13.44.96,21.62,1.55,15.44,3.63,31.43-1.08,46.78-1.86,4.02-5.03,7.75-6.26,12.66-3.13,9.28-5.23,16.86-12.32,18.52-3.21,2.15-2.88,6.68-6.7,9.26-15.21,8.29-30.69,15.48-48.04,17.76-6.6.79-12.22-2.89-17.15-3.29-6.75-1.18-13.41,1.63-19.94,2-10.71,1.35-20.11-3.83-30.6-2.89-3.01.89-5.76,2.34-8.88,2.58-5.57.92-15.33-2.16-21.88-2.45-13.17,1.48-28.51,2.85-41.8,1.9-6.02-.73-9.99.81-15.68,1.58-4.81-.24-8.72-1.32-13.7-1.03-24.33,1.89-49,1.73-73.03-1.73-9.85,1.25-19.23,2.94-28.79.5-7.63,1.47-13.11,2.85-21.12-.27-8.01-1.46-14.06,3.93-22.86,1.55-1.41-.35-3.11-.63-4.52-.94-12.41-.71-26.02,4.17-37.89-1.66-3.64-1.02-7.59,3.61-12.09,2.05-3.94-.76-7.79-1.64-11.69-.6-9.23,3.38-19.33.17-28.54.53-12.34.55-25.18,1.59-36.42,1.47-7.89.12-9.59-3.5-18.13-3.35-7.37,1.36-14.94,1.52-23.01.73-8.99.14-17.44.48-25.45-1.18-4.08-.56-5.81,2.66-9.22,3.94-7.41,2.34-15.34-4.92-23.37-4-14.71,1.5-28.41,2.65-43.23,3.24-9.83-1.63-15.51-.91-24.89.08-3.76.31-7.76-.92-11.04-1.19-1.98-.62-2.16-1.9-7.73-4.29-1.47-.68-3.25-1.18-4.66-1.94-6.91-2.49-10.13-10.7-16.69-13-8.3-1.75-7.84-9.48-12.58-14.95-8.84-7.04-6.65-17.25-10.04-27.58-3.34-16.06,1.44-36.1-1.43-53.07-1.47-7.69,1.15-14.24-.2-20.73-.69-3.83-1.98-8.79-1.72-13.15.41-12.67,3.15-23.25,3.89-35.3-.47-8.85-1.92-14.81.09-22.37,1.73-8.15-.34-16.58-.79-24.82-2.14-8.78.11-17.37.68-26.51-.67-6.18-2.57-12.01-2.68-18.15.49-37.71,1.65-75.07,1.01-112.82-1.77-23.97,5.47-49.34-.96-73.76-2.61-27.17,2.65-60.77,2.92-88.68.07-7.04-4.17-11.67-3.05-17.16.52-3.17,1.89-6.68,1.85-10.36-1.98-12.21-.64-27.36-.95-39.01-2.94-10.39-1.09-20.87.54-31.13.95-6.67-1.23-14.08,1.52-20.77,1.98-5.92-.92-11.33-1.07-17.85.93-12.17-2.19-25.68-.37-37.99-1.45-17.11.16-42.03,4.51-58.37,8.78-10.6,12.46-22.96,24.52-31.3,31.38-15.34,67.55-15.9,101.47-14.02l.92.14ZM110.03,74.87c.62-.49-3.34-3.81-2.67,0h2.67ZM150.93,83.67c.28-1.32-.39-1.81-1.33-2.64-.94.83-1.62,1.32-1.33,2.64h2.67ZM102.92,103.02c-.09-.09-2.57-.09-2.67,0-.09.09-.09,2.55,0,2.64.09.09,2.57.09,2.67,0,.09-.09.09-2.55,0-2.64ZM433.67,116.21l-1.78-1.76c-.23,1.85-.1,1.99,1.78,1.76ZM424.78,152.28c-.97-.96-2.75.8-1.78,1.76s2.75-.8,1.78-1.76ZM324.75,221.77c-.58,0-.58.88,0,.88s.58-.88,0-.88ZM307.41,280.7h-1.78v2.64h1.78v-2.64ZM361.2,289.5c-2.96,2.01.19,5.13,2.22,2.2l-2.22-2.2ZM85.14,294.77c.57-.67-.29-2.47-.89-1.76-.57.67.29,2.47.89,1.76ZM615.05,299.17c.57-.67-.29-2.47-.89-1.76-.57.67.29,2.47.89,1.76ZM190.5,326.44c-2.29.62-1.36,5.01.89,4.4,2.29-.62,1.36-5.01-.89-4.4ZM59.35,362.5c.5-.5-.23-3.22-1.33-3.52l-2.22,1.32.89,2.2c.72-.1,2.5.17,2.67,0ZM464.79,383.61h-1.78v2.64h1.78v-2.64ZM431,399.45c-.97-.96-2.75.8-1.78,1.76.97.96,2.75-.8,1.78-1.76ZM487.9,402.09c-1.34-.28-1.83.39-2.67,1.32.84.93,1.33,1.6,2.67,1.32v-2.64ZM235.4,423.2h-2.67v1.76h2.67v-1.76ZM326.97,505.88h-2.67v.44c1.5,1.84,3.11,2.15,2.67-.44ZM536.36,509.4c-.51.14-1.53,1.77-2.22,2.2,5.44,4.68,7.03-3.56,2.22-2.2ZM50.46,519.95h-3.56c-1.16,5.43,5.02,1.45,3.56,0ZM697.73,585.04c-.97-.96-2.75.8-1.78,1.76.97.96,2.75-.8,1.78-1.76ZM59.35,607.03h-1.78v2.64h1.78v-2.64ZM191.38,665.09c-.58,0-.58.88,0,.88s.58-.88,0-.88ZM263.85,687.96c.54-.53-.21-3.04-1.33-3.52-1.13.47-1.87,2.99-1.33,3.52.09.09,2.57.09,2.67,0ZM215.84,701.15c-.68-.56-2.49.29-1.78.88.68.56,2.49-.29,1.78-.88ZM584.82,703.79h-2.67v2.64c1.69.25,2.92-.96,2.67-2.64ZM783.09,723.14c-1.34-.28-1.83.39-2.67,1.32.98,1.36,1.9,1.52,3.56,1.32l-.89-2.64ZM798.2,724.9c-4.73-.4-4.73,3.92,0,3.52v-3.52ZM655.94,732.82c-1.69-.25-2.92.96-2.67,2.64h2.67v-2.64ZM649.72,764.48v-2.64h-.44l-1.33,1.32,1.78,1.32ZM794.2,797.91c-1.79,1.38-1.79,2.14,0,3.52,1.79-1.38,1.79-2.14,0-3.52ZM337.64,824.3h-3.56c-.4,4.68,3.96,4.68,3.56,0Z"/><path class="cls-1" d="M159.61,445.96c-.1-2.1,1.47-6.61,4.11-11.03,2.58-4.45,5.47-9.21,6.67-12.69-14.52,18.72-23.07,37.07-29.19,59.52,3.59-15.17,9.77-29.62,16.79-43.55-18.19,34.38-28.54,78.39-21.6,120.55,1.83,15.02-2.13,30.83,10.55,50.1-18.59-53.08-12.53-113.34,12.67-162.9Z"/><path class="cls-1" d="M214.73,378.81c-4.04,3.04-8.24,6.86-12.41,10.79,4.07-3.54,8.18-7.11,12.41-10.79Z"/><path class="cls-1" d="M175.25,631.37c-1.81-2.71-3.64-5.35-5.56-7.94,10.61,25.7,32.11,47.32,53.84,63.94-19.93-15.69-36.18-34.93-48.27-56Z"/><path class="cls-1" d="M163.36,597.7c-8.08-23.33-10.64-48-7.79-70.56-3.4,22.53-.82,47.82,7.79,70.56Z"/><path class="cls-1" d="M392.68,668.87c2.08-1.86,4.62-2.98,5.65-3.89,7.75-3.47,14.84-5.73,21.36-9.32.86-1.12,1.9-3.94,4.19-5.55,4.43-3.48,8.56-7.05,12.44-10.68-14.77,13.32-31.49,23.31-48.92,29.79,1.81-.23,3.57-.36,5.29-.35Z"/><path class="cls-1" d="M279.49,735.48c1.46.41,2.95.81,4.45,1.19-1.49-.38-2.97-.79-4.45-1.19Z"/><path class="cls-1" d="M283.94,736.67c1.95.5,3.91.99,5.87,1.46-2-.45-3.93-.96-5.87-1.46Z"/><path class="cls-1" d="M331.23,678.58c2.99,0,5.99,0,8.95,0,5.95.36,11.64-.88,16.78-1.43l-.06-.19c-12.78,1.8-25.63,1.72-38.27.38,1.24.13,2.48.26,3.75.37,2.9.28,5.87.57,8.85.86Z"/><path class="cls-1" d="M318.54,677.34c-12.52-2.08-25.11-4.52-36.66-9.86,4.24,2.32,7.9,5.35,11.41,7.69,6.27-.54,15.18,1.1,25.25,2.18Z"/><path class="cls-1" d="M318.63,677.35s-.06,0-.1,0c0,0,.01,0,.02,0,.03,0,.05,0,.08,0Z"/><path class="cls-1" d="M163.26,512.53c-4.41,18.2-4.92,38.41-1.42,58.38,3.09,15.49,9.22,30.18,16.29,44.11-7.39-16.19-12.69-33.16-15.16-50.51-2.23-17.38-2.09-34.85.29-51.98Z"/><path class="cls-1" d="M251.22,649.68c-4-3.41-8.34-6.42-11.85-10.43,3.07,4.47,6.95,8.11,10.64,11.99.27-.55.08-1.7,1.21-1.56Z"/><path class="cls-1" d="M215.36,607.25c.37,1.94.79,3.59.79,5.08,1.88,1.52,3.57,3.1,5.14,4.78-1.92-3.31-4.32-6.36-5.93-9.86Z"/><path class="cls-1" d="M197.41,554.48l-1.29-9.1c-.39-3.04-.3-6.11-.53-9.14-.06,2.46-.13,4.96-.2,7.49.14,2.54.49,5.11.73,7.73-.11.68.54,1.71,1.28,3.01Z"/><path class="cls-1" d="M404.67,551.86c-4.79-2.48-9.63-4.98-14.61-7.56,4.32,2.64,9.42,5.12,14.61,7.56Z"/><path class="cls-1" d="M639.38,487.89c-1.85,2.68-3.63,5.36-5.33,8.1,19.98-19.33,32.15-47.29,39.59-73.61-7.24,24.31-19.13,46.51-34.26,65.52Z"/><path class="cls-1" d="M612.47,511.36c-18.71,16.12-40.7,27.59-62.72,33.26,22.2-5.14,44.75-16.87,62.72-33.26Z"/><path class="cls-1" d="M596.36,276.74c-.88-1.6-1.65-3.19-2.27-4.79-2.5-1.25-4.48-3.19-5.69-3.82-6.08-5.93-10.8-11.68-16.54-16.42-1.36-.38-4.37-.32-6.71-1.85-4.86-2.83-9.71-5.36-14.52-7.62,17.83,8.82,33.28,20.68,45.73,34.5Z"/><path class="cls-1" d="M672.39,257.09c-10.84-15.02-24.28-27.91-37.99-40.04-14.43-11.35-29.46-21.92-46.07-29.46-8.78-5.37-20.29-10.05-30.85-14.01-10.8-3.36-20.69-6.02-26.74-6.34-63.67-5.04-129.95,19.13-176.09,68.23-21.13,21.36-37.81,48.45-46.91,78.17-3.08,10.17-5.28,20.58-6.74,31.06-4.21.53-8.39,1.13-12.51,1.88-28.31,5-54.27,15.4-77.41,27.52,5.18-1.94,11.06-4.69,17.27-7.77,6.35-2.87,13.41-5.52,20.21-8.38,7.15-2.16,14.16-4.48,20.8-5.88,6.75-1.11,12.9-1.97,18.03-1.98-2.1,1.13-4.12,2.49-6.14,3.71,3.29.46,11.51-.16,18.76-.45-.04.42-.08.83-.12,1.25-.76.02-1.52.03-2.3.01.97,0,1.69,0,2.3,0-.03.34-.07.69-.1,1.03-13.42,2.64-30.81,6.65-44.36,12.59-7.59,3.5-14.04,7.07-18.05,9.84-3.79,3.14-5.23,5.33-3.1,6.11,4.22,1.51,16.51-4.3,32.6-9.42,9.77-3.3,21.07-6.22,32.27-7.93-.04,1.22-.13,2.43-.14,3.65-7.6,2.05-15.29,4.28-23.01,6.71-14.54,5.47-29.11,12.1-40.43,21.49,6.71-2.52,10.76-3.22,19.73-7.07l8.35-3.81,8.68-2.93c5.66-2.22,11.65-3.4,17.51-4.76,3.14-.92,6.22-1.8,9.27-2.55.2,9.29.95,18.52,2.4,27.59,5.03,30.01,16.25,58.12,31.4,82.45,15.08,24.47,34.32,44.77,54.12,61.81-3.71-4.1-8.43-8.55-13.59-13.19-5.01-4.85-10.08-10.43-15.24-15.69-4.64-5.85-9.38-11.51-13.13-17.16-3.52-5.87-6.59-11.26-8.49-16.03,1.83,1.53,3.83,2.91,5.72,4.34-1.12-4.63-8.04-17.84-10.49-25.03,2.21,2.57,3.88,5.91,5.23,9.54q-1.41-3.54-2.83-7.09c7.51,11.92,19.03,29.39,31.02,41.26,6.06,5.76,11.75,10.45,15.81,13.15,4.32,2.37,6.88,2.9,6.82.62-.15-4.48-10.08-13.76-20.77-26.84-10.88-12.85-22.38-29.83-28.34-45.73,8.21,11.94,17.4,24.25,27.24,36.36,10.44,11.5,21.97,22.6,34.88,29.66-4.81-5.31-6.96-8.81-13.85-15.74l-6.62-6.35-5.92-6.99c-4.15-4.45-7.45-9.58-10.88-14.52-7.36-9.42-14.05-18.33-15.55-29.54-.4-.97-.9-1.87-1.17-2.88-1.01-1.83-2.54-3.32-3.39-5.29-3.21-8.95-1.4-11.53-5.92-21.07.4-.21.84.07,1.3.57-1.7-2.83-1.47-7.95-3.36-11.17.79-.34,1.57-.67,2.09-1.5-1.12-9.11-1.45-18.3-1.04-27.45,6.08.78,8.82,2.48,17.55,1.92.04.45-.38.76-1.01.99,3.26-.53,7.94,1.56,11.62.99.03.86.04,1.71.62,2.49,21.75,5.68,42.29,15.68,59.78,29.8,5.11,4.3,10.3,8.34,14.67,13.2,2.03,1.89,4.19,3.7,6.16,5.76,1.82,2.19,3.66,4.42,5.55,6.69,1.91,2.21,5.08,3.04,6.21,3.94,3.43,7.06,7.16,13.69,10.54,21.99,1,1.02,2.65,3.44,4.57,5.59.02,1.83.17,3.69.42,5.59l3.24,7.65,2.42,7.9c1.87,5.18,2.86,10.56,3.93,15.9l.18-.07c1.65,5.2,1.71,11.3,2.48,17.43.18,6.17.25,12.55-.09,18.62-.32,5.33-.79,10.4-1.15,15.07-1.21,4.32-1.96,8.72-3.45,12.94.84-.51,1.71-.48,2.57-.44-.11-1.57.13-3.35.42-5.11-.1,2.57-.1,4.92.05,7.01-3.68-.15-7.36-.38-11.03-.72-1.91.87-6.69,1.07-11.77.25-5.09-.76-10.57-1.69-14.25-1.52,12.11,3.51,23.5,5.45,34.98,6.14-.09.15-.18.32-.27.47-5.11-.19-10.21-.52-15.3-.98,4.99.55,10.08.9,15.24,1.08-1.6,2.71-3.02,5.64-4.84,8.61-2.28,5.76-4.42,11.59-7.54,16.97-2.6,5.65-6.19,10.74-9.6,15.93-.07,1.22,1.06.91,1.61,1.14-3.42,4.38-8.01,7.88-11.83,11.83-3.33,3.66-7.06,7-10.53,10.55-3.74,3.3-7.84,6.24-11.72,9.42-1.54,1.87-3.37,3.4-4.9,5.35-1.59.05-3.35.46-5.23,1.17-3.07,2.15-6.49,3.7-9.89,5.3-8.84,4.87-25.63,12.18-44.39,16.07-1.3.89-2.34,1.67-3.04,1.64-5.5.44-10.78,1.21-15.91,1.21-17.76,1.88-34.34-.65-43.6-1.92-5.56-.82-.87,4.04,5.81,7.83,3.37,2.03,6.88,4.13,9.72,5.84,2.76,1.44,4.53,2.61,3.82,3.2-14.78,7.58-39.77.28-72.27-13.76-8.76-4.5,5.02,5.32,4.84,6.56-1.76.17-3.77-.17-5.98-.76-6.17-3.65-12.63-6.89-18.34-11.29l2.39,1.92c5.02,3.86,10.55,6.67,15.56,9.26-2.19-.61-4.56-1.43-7.09-2.27-5.33-1.65-10.64-4.33-15.36-6.42,21.24,17.84,47.11,30.85,74.67,36.29,27.5,5.65,56.27,4.7,83.26-2.51-20.49,4.78-41.53,4.85-60.55,1.1,8.91,1.25,17.9.98,26.92,1.08,8.96-.82,18.04-1.24,26.9-3.25,17.81-3.32,35.41-9.17,51.58-18.09,34.12-19.84,60.63-50.84,76.78-86.11-.6,3.35-1.81,6.99-3.25,10.87l4.34-9.37,3.52-9.7c2.58-6.38,4.17-13.08,5.92-19.71.33-1.79.53-3.6.67-5.42.19-.02.37-.05.56-.07,0,.26.02.53.02.79.06-.27.1-.54.16-.81.64-.08,1.27-.16,1.91-.25,0,.03-.02.07-.03.1-1.73,5.76-2.2,4.07-2.04.96l-1.25,4.71c-.77,4.76-1.32,9.66-2.58,14.39-1.36,4.7-2.88,9.42-4.62,14.1-2.3,5.06-4.99,9.93-7.47,14.86-2.56,4.9-5.87,9.35-8.77,14.01-1.12,1.81-2.16,3.69-3.51,5.35.6-.89,1.28-1.73,1.77-2.69-16.38,22.89-38.09,41.18-62.13,53.99-13.79,8.68-29.22,14.44-44.85,19.15,29.2-6.42,56.77-21.5,80.05-40.35-13.34,15.1-31.85,28.18-52.54,37.05l10.12-4.21c3.28-1.6,6.47-3.43,9.71-5.16,6.6-3.27,12.64-7.49,18.69-11.7,4.94-2.76,9.32-6.28,13.58-9.31,4.24-3.06,8.34-5.67,11.5-8.1-10.73,9.91-20.25,17.46-29.37,24.55,21.22-13.41,40.4-31.09,55.62-52.48-15.93,23.44-37.44,46.58-63.52,58.68,2.75-1.88,5.29-4.03,7.9-6.2-38.49,24.24-84.02,34.8-127.72,29.69,11.44,3.47,26.7,4.02,41.95,1.74,15.4-1.62,30.5-6.25,44.09-8.79-45.53,18.19-100.98,15.9-147.4-5.83-46.82-21.47-83.8-60.61-105-105.36,12.79,32.68,32.94,62.48,60.09,86.3-5.29-4.26-11.06-9.53-16.89-14.6,12.76,12.61,26.41,23.4,41.94,32.29-22.52-12.68-43.04-28.91-60.71-47.9-12.53-15.21-16.79-17.96-17.13-14.62-.25,3.23,3.85,12.46,8.9,19.14,51.93,65.68,135.58,97.59,212.76,78.93,17.96-4.54,34.89-12.28,51.23-20.55,15.87-9.23,31.23-19.3,44.37-31.97,8.23-6.18,16.82-15.15,24.39-23.51,7.11-8.8,13.23-17.01,15.76-22.52,11.81-24.03,18.94-50.39,21.21-77.38,17.97-4.11,35.57-10.79,51.63-20.43,13.29-7.23,29.44-9.38,42.68-28.28-26.65,23.12-59.51,38.25-93.97,45.05.56-8.3.64-16.65.26-25.01,17.95-2.81,36.24-9.63,52.94-19.89,13.26-8.58,24.65-19.7,35-31.41-12.33,12.84-26.15,24.02-41.37,32.71-14.76,8.17-30.44,14.27-46.58,18.38-1.3-28.08-7.93-56.22-20.31-82.58-12.07-27.52-31.09-53.01-55.37-72.43-24.32-19.35-53.12-32.93-82.78-39.54-11.75-2.52-23.58-4-35.34-4.6.58-2.22,1.17-4.43,1.86-6.62,2.12-6.34,3.95-12.65,6.86-18.5,1.01-2.58,1.89-5.26,3.08-7.85,1.37-2.5,2.75-5.03,4.17-7.62,1.35-2.59.95-5.84,1.37-7.23,5.3-5.79,10.08-11.7,16.55-17.9.58-1.31,2.22-3.73,3.51-6.31,1.69-.7,3.37-1.52,5.04-2.45l5.92-5.83,6.45-5.16c4.12-3.65,8.77-6.55,13.33-9.52l-.13-.15c4.23-3.45,9.88-5.75,15.29-8.73,5.67-2.44,11.57-4.86,17.34-6.78,5.07-1.66,9.96-3.11,14.43-4.49,4.47-.47,8.83-1.39,13.3-1.56-.78-.6-1.08-1.41-1.36-2.23-1.42.68-3.16,1.11-4.91,1.49,2.81-.99,5.34-1.98,7.41-3.05,4.39,1.29,9.08,1.36,14.15,2.24,6.2,0,12.4-.16,18.55.76,6.21.34,12.26,1.79,18.35,3.05,1.16-.38.46-1.32.46-1.92,5.33,1.57,10.28,4.54,15.36,6.64,4.63,1.75,9.11,3.98,13.69,5.9,4.45,2.27,8.69,4.99,13.08,7.43,2.31.74,4.4,1.88,6.78,2.58.63,1.46,1.67,2.94,3.01,4.43,3.13,2.07,5.83,4.67,8.58,7.24,7.79,6.42,20.77,19.33,31.31,35.34,1.31.88,2.42,1.56,2.65,2.22,2.44,4.95,5.1,9.57,6.99,14.34,8.3,15.81,12.06,32.16,14.29,41.24,1.28,5.47,4.07-.68,5.13-8.28.64-3.88,1.31-7.92,1.84-11.19.32-3.1.76-5.18,1.56-4.73,12.49,10.94,14.92,36.86,13.85,72.26-.95,9.8,3.09-6.63,4.32-6.92.81,1.58,1.23,3.57,1.5,5.84-1.12,7.08-1.75,14.28-3.73,21.21l.9-2.93c1.74-6.09,2.31-12.26,2.87-17.87.24,2.26.35,4.76.5,7.43.43,5.56-.11,11.49-.31,16.65,8.75-26.32,11.3-55.17,6.21-82.79-4.89-27.64-16.37-54.04-33.03-76.47,12,17.29,19.82,36.82,23.34,55.88-2.12-8.74-5.68-17-8.92-25.42-4.07-8.03-7.8-16.31-12.94-23.81-9.65-15.33-21.58-29.54-35.83-41.28-31.02-24.4-69.61-37.61-108.35-39.63,3.34-.68,7.17-.9,11.3-.99l-10.31-.58-10.32.3c-6.89-.05-13.69.94-20.5,1.76-4.11.81-8.08,2.26-12.02,3.66,1.56-.67,4.67-2.01,7.18-3.09-41.94,6.94-81.02,27.86-108.91,57.97,2.14-2.49,2.84-4.03,3.44-5.57-1.48,1.65-3.15,3.15-4.53,4.92-3.65,4.84-7.27,9.64-10.75,14.25,3.19-4.92,7.03-9.56,10.75-14.25,1.46-1.98,3.23-3.7,4.8-5.55.63-1.4,1.54-2.79,4.09-4.56,3.64-4.37,7.81-7.9,11.64-11.14,3.81-3.28,7.41-6.11,10.96-7.81,25.7-14.27,50.88-27.64,76.86-29.81,5.99-.52,4.6.55,1.64,1.54l4.84-.57c4.71-1.04,9.46-2.33,14.33-2.91,4.87-.47,9.82-.79,14.81-.91,5.55.27,11.07.97,16.57,1.47,5.5.57,10.86,2.01,16.26,2.99,2.1.38,4.23.64,6.27,1.29-1.04-.23-2.08-.55-3.15-.65,27.32,6.79,52.32,20.22,73.09,37.85,13.15,9.62,24.2,21.83,34.34,34.63-16.73-24.78-40.92-44.85-67.02-59.54,18.95,6.84,37.93,19.22,53.81,35.18l-7.64-7.85c-2.7-2.46-5.58-4.75-8.38-7.12-5.48-4.93-11.62-8.99-17.77-13.05-4.38-3.58-9.27-6.35-13.66-9.19-4.4-2.82-8.35-5.66-11.77-7.7,13.17,6.32,23.7,12.39,33.65,18.25-20.29-14.79-43.8-26.1-69.29-32.35,27.66,6.17,57.1,17.63,77.96,37.41-2.76-1.86-5.69-3.43-8.67-5.06,36.72,26.84,63.32,65.28,74.68,107.78-1-11.92-6.11-26.3-13.85-39.64-7.18-13.71-17.06-26.05-24.43-37.75,33.7,35.61,52.01,88.01,48.92,139.17-2.7,51.44-25.45,100.24-59.23,136.45,25.66-23.94,45.94-53.66,58.07-87.67-2.01,6.49-4.78,13.79-7.34,21.08,7.02-16.51,12.02-33.18,14.56-50.9-3.48,25.62-11.01,50.67-22.15,74.1-9.51,17.26-10.51,22.23-7.27,21.31,3.1-.96,10.16-8.18,14.51-15.33,41.91-72.49,40.74-162.01-5.07-226.88ZM369.5,739.52c-40.89,7.85-84.25,1.52-119.42-14.24,9.52,4.21,19.4,7.47,29.42,10.2-18.92-5.36-35.25-13.19-52.34-24.9,6.83,2.87,20.49,10.63,24.8,10.31-2.49-1.13-4.93-2.37-7.38-3.59,2.53,1.23,5.08,2.43,7.72,3.57-.09.03-.22.02-.33.03,52.4,23.77,114.8,26.47,168.64,5.07-19.15,14.43-35.82,10.23-51.1,13.56ZM237.79,713.79c1.74.94,3.47,1.88,5.26,2.77-1.77-.9-3.52-1.83-5.26-2.77ZM514.11,570.63c.04-.98.07-1.96.11-2.94.02.72.05,1.78.08,2.93-.06,0-.13,0-.19.01ZM501.7,452.12c1.31,2.08,2.25,4.36,3.38,6.51,1.07,1.1,2.02,2.46,2.73,5.49,2.72,5,4.47,10.17,6.07,14.92,1.64,4.75,2.94,9.14,3.22,13.07,3.57,27.47,6.56,54.22.56,78.1-.75.09-1.5.2-2.25.28,7.57-40.05,2.28-82.05-14.72-117.59,1.52,2.91,2.7,4.12,3.91,5.25-.99-1.98-1.77-4.09-2.9-6.03-3.15-5.18-6.28-10.31-9.28-15.24,3.4,4.78,6.29,10.06,9.28,15.24ZM693.88,410.45c.15-7.41,2.33-22.96.44-26.86-.14,2.74-.39,5.47-.62,8.2.21-2.81.39-5.63.47-8.5.06.07.1.19.15.3,2.78-57.47-17.72-116.47-57.46-158.63,20.47,12.48,22.71,29.53,31.45,42.5,22.38,35.12,32.47,77.75,30.79,116.26.4-10.4-.21-20.79-1.36-31.11,2,19.57.74,37.63-3.86,57.83ZM692.94,399.39c.23-1.97.47-3.94.63-5.93-.18,1.98-.4,3.96-.63,5.93Z"/><path class="cls-1" d="M697.73,352.62c-.15-1.51-.34-3.04-.53-4.57.19,1.52.36,3.05.53,4.57Z"/><path class="cls-1" d="M697.2,348.05c-.25-2-.52-4-.81-6,.32,2.03.56,4.01.81,6Z"/><path class="cls-1" d="M629.27,337.65s.02.07.03.1c0,0,0-.01,0-.02,0-.03-.02-.05-.02-.08Z"/><path class="cls-1" d="M625.77,325.49c-1.1-2.78-2.21-5.57-3.29-8.32-1.85-5.66-5.11-10.5-7.52-15.07l-.15.12c6.38,11.22,11.05,23.18,14.46,35.43-.33-1.2-.67-2.4-1.04-3.62-.81-2.8-1.63-5.67-2.46-8.54Z"/><path class="cls-1" d="M633.64,375.47c.59-4.8,2.06-9.32,2.94-13.44-2.82-5.63-4.57-14.51-7.29-24.27,2.68,12.4,5.05,25.01,4.35,37.71Z"/><path class="cls-1" d="M628.39,410.53c-1.7,4.98-2.89,10.12-5.32,14.86,3.02-4.5,4.98-9.45,7.22-14.31-.61-.05-1.61.55-1.9-.55Z"/><path class="cls-1" d="M609.16,450.36c-2.37,3.01-4.32,6.36-6.98,9.15,1.66-1.06,3.05-2.06,4.43-2.61.72-2.3,1.56-4.46,2.55-6.54Z"/><path class="cls-1" d="M550.5,501.48c2.31-1.07,4.57-2.34,6.91-3.53.67-.15,1.39-1.14,2.33-2.3l-7.98,4.55c-2.68,1.48-5.57,2.53-8.3,3.86,2.31-.85,4.66-1.71,7.04-2.58Z"/></svg>